<svg width="300" height="180" xmlns="http://www.w3.org/2000/svg">
  <defs>
    <linearGradient id="corporate-bg" x1="0%" y1="0%" x2="100%" y2="100%">
      <stop offset="0%" style="stop-color:#667eea;stop-opacity:1" />
      <stop offset="100%" style="stop-color:#764ba2;stop-opacity:1" />
    </linearGradient>
    <linearGradient id="screen-bg" x1="0%" y1="0%" x2="100%" y2="100%">
      <stop offset="0%" style="stop-color:#FFFFFF;stop-opacity:1" />
      <stop offset="100%" style="stop-color:#F8F9FA;stop-opacity:1" />
    </linearGradient>
  </defs>
  
  <!-- Background -->
  <rect width="100%" height="100%" fill="url(#corporate-bg)" rx="8"/>
  
  <!-- Desktop mockup centered -->
  <rect x="50" y="20" width="200" height="120" fill="#2C3E50" rx="5"/>
  <rect x="55" y="25" width="190" height="105" fill="url(#screen-bg)"/>
  <circle cx="150" cy="145" r="3" fill="#34495E"/>
  
  <!-- Website header -->
  <rect x="55" y="25" width="190" height="16" fill="#2c5aa0"/>
  <circle cx="63" cy="33" r="1.5" fill="#FFFFFF"/>
  <circle cx="69" cy="33" r="1.5" fill="#FFFFFF"/>
  <circle cx="75" cy="33" r="1.5" fill="#FFFFFF"/>
  <text x="150" y="35" font-family="Arial, sans-serif" font-size="8" font-weight="bold" fill="#FFFFFF" text-anchor="middle">TechSolutions</text>
  
  <!-- Navigation -->
  <rect x="60" y="46" width="180" height="8" fill="#F8F9FA"/>
  <rect x="65" y="48" width="20" height="2.5" fill="#2c5aa0"/>
  <rect x="90" y="48" width="16" height="2.5" fill="#6C757D"/>
  <rect x="110" y="48" width="20" height="2.5" fill="#6C757D"/>
  <rect x="135" y="48" width="16" height="2.5" fill="#6C757D"/>
  <rect x="155" y="48" width="20" height="2.5" fill="#6C757D"/>
  
  <!-- Hero section -->
  <rect x="65" y="58" width="80" height="25" fill="#E3F2FD"/>
  <rect x="70" y="62" width="50" height="3" fill="#2c5aa0"/>
  <rect x="70" y="67" width="35" height="2" fill="#6C757D"/>
  <rect x="70" y="71" width="40" height="2" fill="#6C757D"/>
  
  <!-- Service cards -->
  <rect x="155" y="58" width="32" height="16" fill="#FFFFFF" stroke="#E0E0E0"/>
  <rect x="158" y="61" width="8" height="2" fill="#4CAF50"/>
  <rect x="158" y="64" width="12" height="1.5" fill="#6C757D"/>
  <rect x="158" y="67" width="10" height="1.5" fill="#6C757D"/>
  
  <rect x="192" y="58" width="32" height="16" fill="#FFFFFF" stroke="#E0E0E0"/>
  <rect x="195" y="61" width="8" height="2" fill="#FF9800"/>
  <rect x="195" y="64" width="12" height="1.5" fill="#6C757D"/>
  <rect x="195" y="67" width="10" height="1.5" fill="#6C757D"/>
  
  <rect x="155" y="78" width="32" height="16" fill="#FFFFFF" stroke="#E0E0E0"/>
  <rect x="158" y="81" width="8" height="2" fill="#E91E63"/>
  <rect x="158" y="84" width="12" height="1.5" fill="#6C757D"/>
  <rect x="158" y="87" width="10" height="1.5" fill="#6C757D"/>
  
  <rect x="192" y="78" width="32" height="16" fill="#FFFFFF" stroke="#E0E0E0"/>
  <rect x="195" y="81" width="8" height="2" fill="#9C27B0"/>
  <rect x="195" y="84" width="12" height="1.5" fill="#6C757D"/>
  <rect x="195" y="87" width="10" height="1.5" fill="#6C757D"/>
  
  <!-- Stats section -->
  <rect x="65" y="98" width="160" height="12" fill="#F8F9FA"/>
  <text x="90" y="103" font-family="Arial, sans-serif" font-size="5" font-weight="bold" fill="#2c5aa0" text-anchor="middle">500+</text>
  <text x="90" y="107" font-family="Arial, sans-serif" font-size="3" fill="#6C757D" text-anchor="middle">Projects</text>
  
  <text x="135" y="103" font-family="Arial, sans-serif" font-size="5" font-weight="bold" fill="#2c5aa0" text-anchor="middle">200+</text>
  <text x="135" y="107" font-family="Arial, sans-serif" font-size="3" fill="#6C757D" text-anchor="middle">Clients</text>
  
  <text x="180" y="103" font-family="Arial, sans-serif" font-size="5" font-weight="bold" fill="#2c5aa0" text-anchor="middle">98%</text>
  <text x="180" y="107" font-family="Arial, sans-serif" font-size="3" fill="#6C757D" text-anchor="middle">Satisfaction</text>
  
  <!-- Floating elements -->
  <circle cx="20" cy="45" r="5" fill="#FFFFFF" opacity="0.8"/>
  <rect x="17" y="42" width="6" height="6" fill="#2c5aa0" opacity="0.6"/>
  
  <polygon points="280,30 285,25 290,30 285,35" fill="#FFFFFF" opacity="0.8"/>
  
  <circle cx="25" cy="110" r="4" fill="#FFFFFF" opacity="0.6"/>
  <rect x="22" y="107" width="6" height="6" fill="#4CAF50" opacity="0.7"/>
  
  <rect x="270" y="95" width="8" height="8" fill="#FFFFFF" opacity="0.8" transform="rotate(45 274 99)"/>
  
  <!-- Company branding -->
  <text x="150" y="165" font-family="Arial, sans-serif" font-size="12" font-weight="bold" fill="#FFFFFF" text-anchor="middle">
    TechSolutions
  </text>
</svg>