<svg width="300" height="300" xmlns="http://www.w3.org/2000/svg">
  <defs>
    <linearGradient id="profile-gradient" x1="0%" y1="0%" x2="100%" y2="100%">
      <stop offset="0%" style="stop-color:#2D1B69;stop-opacity:1" />
      <stop offset="100%" style="stop-color:#F72585;stop-opacity:1" />
    </linearGradient>
    <radialGradient id="face-gradient" cx="50%" cy="40%" r="60%">
      <stop offset="0%" style="stop-color:#FFE0B2;stop-opacity:1" />
      <stop offset="100%" style="stop-color:#FFCC80;stop-opacity:1" />
    </radialGradient>
  </defs>
  
  <!-- Background circle -->
  <circle cx="150" cy="150" r="140" fill="url(#profile-gradient)"/>
  
  <!-- Face -->
  <circle cx="150" cy="130" r="60" fill="url(#face-gradient)"/>
  
  <!-- Hair -->
  <path d="M90,90 Q150,60 210,90 Q200,120 150,110 Q100,120 90,90" fill="#3E2723"/>
  
  <!-- Eyes -->
  <ellipse cx="135" cy="120" rx="8" ry="10" fill="#FFFFFF"/>
  <ellipse cx="165" cy="120" rx="8" ry="10" fill="#FFFFFF"/>
  <circle cx="135" cy="122" r="4" fill="#2D1B69"/>
  <circle cx="165" cy="122" r="4" fill="#2D1B69"/>
  <circle cx="136" cy="121" r="1" fill="#FFFFFF"/>
  <circle cx="166" cy="121" r="1" fill="#FFFFFF"/>
  
  <!-- Nose -->
  <ellipse cx="150" cy="135" rx="2" ry="4" fill="#FFAB91"/>
  
  <!-- Mouth -->
  <path d="M140,145 Q150,155 160,145" stroke="#D84315" stroke-width="2" fill="none"/>
  
  <!-- Neck -->
  <rect x="130" y="190" width="40" height="30" fill="url(#face-gradient)"/>
  
  <!-- Shirt -->
  <rect x="110" y="220" width="80" height="80" fill="#2D1B69"/>
  <rect x="115" y="225" width="70" height="70" fill="#F72585"/>
  
  <!-- Design elements around -->
  <circle cx="80" cy="80" r="8" fill="#4CC9F0" opacity="0.8"/>
  <rect x="210" y="70" width="15" height="15" fill="#4CC9F0" opacity="0.8" transform="rotate(45 217.5 77.5)"/>
  <polygon points="70,200 80,180 90,200" fill="#4CC9F0" opacity="0.8"/>
  <circle cx="220" cy="180" r="6" fill="#F72585" opacity="0.8"/>
  
  <!-- Creative tools -->
  <rect x="40" y="120" width="3" height="30" fill="#FFB74D"/>
  <circle cx="41.5" cy="115" r="5" fill="#FF7043"/>
  
  <rect x="250" y="140" width="20" height="3" fill="#9C27B0"/>
  <rect x="245" y="135" width="30" height="3" fill="#E91E63"/>
  <rect x="240" y="130" width="35" height="3" fill="#2196F3"/>
</svg>