<svg width="400" height="250" xmlns="http://www.w3.org/2000/svg">
  <defs>
    <linearGradient id="web-bg" x1="0%" y1="0%" x2="100%" y2="100%">
      <stop offset="0%" style="stop-color:#E8EAF6;stop-opacity:1" />
      <stop offset="100%" style="stop-color:#C5CAE9;stop-opacity:1" />
    </linearGradient>
  </defs>
  
  <!-- Background -->
  <rect width="100%" height="100%" fill="url(#web-bg)" rx="10"/>
  
  <!-- Browser window -->
  <rect x="50" y="40" width="300" height="180" fill="#FFFFFF" stroke="#3F51B5" stroke-width="2" rx="8"/>
  
  <!-- Browser header -->
  <rect x="50" y="40" width="300" height="25" fill="#3F51B5" rx="8"/>
  <circle cx="65" cy="52.5" r="3" fill="#FFFFFF"/>
  <circle cx="75" cy="52.5" r="3" fill="#FFFFFF"/>
  <circle cx="85" cy="52.5" r="3" fill="#FFFFFF"/>
  <rect x="110" y="47" width="180" height="11" fill="#FFFFFF" rx="5"/>
  
  <!-- Navigation -->
  <rect x="60" y="75" width="280" height="15" fill="#F5F5F5"/>
  <rect x="70" y="80" width="40" height="5" fill="#3F51B5"/>
  <rect x="120" y="80" width="30" height="5" fill="#9E9E9E"/>
  <rect x="160" y="80" width="35" height="5" fill="#9E9E9E"/>
  <rect x="205" y="80" width="40" height="5" fill="#9E9E9E"/>
  
  <!-- Hero section -->
  <rect x="60" y="100" width="280" height="60" fill="#E3F2FD"/>
  <rect x="70" y="110" width="120" height="8" fill="#1976D2"/>
  <rect x="70" y="125" width="100" height="5" fill="#757575"/>
  <rect x="70" y="135" width="80" height="5" fill="#757575"/>
  <rect x="70" y="145" width="60" height="12" fill="#2196F3" rx="6"/>
  
  <!-- Image placeholder -->
  <rect x="220" y="110" width="100" height="40" fill="#BBDEFB" rx="4"/>
  <circle cx="270" cy="130" r="15" fill="#2196F3"/>
  
  <!-- Content sections -->
  <rect x="70" y="175" width="60" height="30" fill="#F8F9FA" stroke="#E0E0E0"/>
  <rect x="75" y="180" width="20" height="4" fill="#4CAF50"/>
  <rect x="75" y="188" width="35" height="3" fill="#9E9E9E"/>
  <rect x="75" y="195" width="25" height="3" fill="#9E9E9E"/>
  
  <rect x="140" y="175" width="60" height="30" fill="#F8F9FA" stroke="#E0E0E0"/>
  <rect x="145" y="180" width="20" height="4" fill="#FF9800"/>
  <rect x="145" y="188" width="35" height="3" fill="#9E9E9E"/>
  <rect x="145" y="195" width="25" height="3" fill="#9E9E9E"/>
  
  <rect x="210" y="175" width="60" height="30" fill="#F8F9FA" stroke="#E0E0E0"/>
  <rect x="215" y="180" width="20" height="4" fill="#E91E63"/>
  <rect x="215" y="188" width="35" height="3" fill="#9E9E9E"/>
  <rect x="215" y="195" width="25" height="3" fill="#9E9E9E"/>
  
  <!-- Mobile mockup -->
  <rect x="320" y="80" width="40" height="70" fill="#424242" rx="8"/>
  <rect x="325" y="90" width="30" height="50" fill="#FFFFFF"/>
  <rect x="325" y="90" width="30" height="12" fill="#3F51B5"/>
  <rect x="330" y="105" width="20" height="3" fill="#1976D2"/>
  <rect x="330" y="112" width="15" height="2" fill="#9E9E9E"/>
  <rect x="330" y="118" width="20" height="6" fill="#E3F2FD"/>
  <rect x="330" y="128" width="20" height="6" fill="#F8F9FA"/>
  
  <text x="200" y="235" font-family="Arial, sans-serif" font-size="14" font-weight="bold" fill="#3F51B5" text-anchor="middle">
    コーポレートWebサイト
  </text>
</svg>