<svg width="300" height="180" xmlns="http://www.w3.org/2000/svg">
  <defs>
    <linearGradient id="portfolio-bg" x1="0%" y1="0%" x2="100%" y2="100%">
      <stop offset="0%" style="stop-color:#2D1B69;stop-opacity:1" />
      <stop offset="100%" style="stop-color:#F72585;stop-opacity:1" />
    </linearGradient>
    <linearGradient id="screen-gradient" x1="0%" y1="0%" x2="100%" y2="100%">
      <stop offset="0%" style="stop-color:#FFFFFF;stop-opacity:1" />
      <stop offset="100%" style="stop-color:#F8F9FA;stop-opacity:1" />
    </linearGradient>
    <radialGradient id="profile-gradient" cx="50%" cy="40%" r="60%">
      <stop offset="0%" style="stop-color:#FFE0B2;stop-opacity:1" />
      <stop offset="100%" style="stop-color:#FFCC80;stop-opacity:1" />
    </radialGradient>
  </defs>
  
  <!-- Background -->
  <rect width="100%" height="100%" fill="url(#portfolio-bg)" rx="8"/>
  
  <!-- Browser mockup -->
  <rect x="30" y="15" width="240" height="130" fill="#2C3E50" rx="5"/>
  <rect x="35" y="20" width="230" height="120" fill="url(#screen-gradient)"/>
  
  <!-- Browser header -->
  <rect x="35" y="20" width="230" height="12" fill="#2D1B69"/>
  <circle cx="42" cy="26" r="1.5" fill="#FFFFFF"/>
  <circle cx="48" cy="26" r="1.5" fill="#FFFFFF"/>
  <circle cx="54" cy="26" r="1.5" fill="#FFFFFF"/>
  <text x="150" y="28" font-family="Arial, sans-serif" font-size="6" fill="#FFFFFF" text-anchor="middle">Maya Design Studio</text>
  
  <!-- Navigation -->
  <rect x="40" y="37" width="220" height="8" fill="#F8F9FA"/>
  <rect x="45" y="39" width="15" height="3" fill="#2D1B69"/>
  <text x="65" y="42" font-family="Arial, sans-serif" font-size="4" fill="#2D1B69">Maya Studio</text>
  <rect x="210" y="39" width="10" height="3" fill="#F72585"/>
  <rect x="225" y="39" width="10" height="3" fill="#666"/>
  <rect x="240" y="39" width="15" height="3" fill="#666"/>
  
  <!-- Hero section -->
  <rect x="45" y="50" width="100" height="35" fill="#F3F4F6"/>
  <text x="52" y="57" font-family="serif" font-size="4" fill="#666">Hello, I'm</text>
  <text x="52" y="64" font-family="serif" font-size="7" font-weight="bold" fill="#2D1B69">Maya Tanaka</text>
  <text x="52" y="71" font-family="serif" font-size="5" fill="#F72585">Creative Designer</text>
  <text x="52" y="78" font-family="Arial, sans-serif" font-size="3" fill="#666">美しいデザインで</text>
  <text x="52" y="82" font-family="Arial, sans-serif" font-size="3" fill="#666">ブランドに命を吹き込む</text>
  
  <!-- CTA buttons -->
  <rect x="50" y="80" width="30" height="4" fill="url(#portfolio-bg)" rx="2"/>
  <text x="65" y="83" font-family="Arial, sans-serif" font-size="3" fill="#FFFFFF" text-anchor="middle">作品を見る</text>
  <rect x="85" y="80" width="30" height="4" fill="none" stroke="#2D1B69" rx="2"/>
  <text x="100" y="83" font-family="Arial, sans-serif" font-size="3" fill="#2D1B69" text-anchor="middle">お問い合わせ</text>
  
  <!-- Profile section -->
  <circle cx="200" cy="67.5" r="15" fill="url(#profile-gradient)"/>
  <path d="M190,59 Q200,53 210,59 Q207,65 200,63 Q193,65 190,59" fill="#3E2723"/>
  <circle cx="196" cy="64" r="1.2" fill="#2D1B69"/>
  <circle cx="204" cy="64" r="1.2" fill="#2D1B69"/>
  <path d="M194,72 Q200,74 206,72" stroke="#D84315" stroke-width="0.6" fill="none"/>
  
  <!-- Portfolio grid -->
  <rect x="45" y="92" width="200" height="35" fill="#E8E9FA"/>
  
  <!-- Portfolio items (3 rows) -->
  <rect x="50" y="96" width="16" height="7" fill="#D7CCC8" rx="1"/>
  <text x="58" y="100" font-family="Arial, sans-serif" font-size="2.5" fill="#6D4C41" text-anchor="middle">Café</text>
  
  <rect x="70" y="96" width="16" height="7" fill="#E8EAF6" rx="1"/>
  <text x="78" y="100" font-family="Arial, sans-serif" font-size="2.5" fill="#3F51B5" text-anchor="middle">Web</text>
  
  <rect x="90" y="96" width="16" height="7" fill="#FCE4EC" rx="1"/>
  <text x="98" y="100" font-family="Arial, sans-serif" font-size="2.5" fill="#E91E63" text-anchor="middle">Print</text>
  
  <rect x="110" y="96" width="16" height="7" fill="#E8F5E8" rx="1"/>
  <text x="118" y="100" font-family="Arial, sans-serif" font-size="2.5" fill="#4CAF50" text-anchor="middle">Logo</text>
  
  <rect x="130" y="96" width="16" height="7" fill="#FFF3E0" rx="1"/>
  <text x="138" y="100" font-family="Arial, sans-serif" font-size="2.5" fill="#FF9800" text-anchor="middle">EC</text>
  
  <rect x="150" y="96" width="16" height="7" fill="#1A1A1A" rx="1"/>
  <text x="158" y="100" font-family="Arial, sans-serif" font-size="2.5" fill="#FF6B35" text-anchor="middle">Event</text>
  
  <rect x="170" y="96" width="16" height="7" fill="#E1F5FE" rx="1"/>
  <text x="178" y="100" font-family="Arial, sans-serif" font-size="2.5" fill="#0277BD" text-anchor="middle">App</text>
  
  <rect x="190" y="96" width="16" height="7" fill="#F3E5F5" rx="1"/>
  <text x="198" y="100" font-family="Arial, sans-serif" font-size="2.5" fill="#7B1FA2" text-anchor="middle">Brand</text>
  
  <rect x="210" y="96" width="16" height="7" fill="#E8F5E8" rx="1"/>
  <text x="218" y="100" font-family="Arial, sans-serif" font-size="2.5" fill="#2E7D32" text-anchor="middle">Video</text>
  
  <rect x="230" y="96" width="16" height="7" fill="#FFF8E1" rx="1"/>
  <text x="238" y="100" font-family="Arial, sans-serif" font-size="2.5" fill="#F57F17" text-anchor="middle">Photo</text>
  
  <!-- Skills tags (2 rows) -->
  <rect x="50" y="107" width="190" height="8" fill="#F8F9FA"/>
  <rect x="52" y="108" width="10" height="2" fill="#2D1B69" rx="1"/>
  <text x="57" y="109.5" font-family="Arial, sans-serif" font-size="1.5" fill="#FFFFFF" text-anchor="middle">ブランド</text>
  <rect x="64" y="108" width="7" height="2" fill="#F72585" rx="1"/>
  <text x="67.5" y="109.5" font-family="Arial, sans-serif" font-size="1.5" fill="#FFFFFF" text-anchor="middle">Web</text>
  <rect x="73" y="108" width="8" height="2" fill="#4CC9F0" rx="1"/>
  <text x="77" y="109.5" font-family="Arial, sans-serif" font-size="1.5" fill="#FFFFFF" text-anchor="middle">印刷物</text>
  <rect x="83" y="108" width="7" height="2" fill="#66BB6A" rx="1"/>
  <text x="86.5" y="109.5" font-family="Arial, sans-serif" font-size="1.5" fill="#FFFFFF" text-anchor="middle">ロゴ</text>
  <rect x="92" y="108" width="10" height="2" fill="#FF9800" rx="1"/>
  <text x="97" y="109.5" font-family="Arial, sans-serif" font-size="1.5" fill="#FFFFFF" text-anchor="middle">パッケージ</text>
  <rect x="104" y="108" width="8" height="2" fill="#9C27B0" rx="1"/>
  <text x="108" y="109.5" font-family="Arial, sans-serif" font-size="1.5" fill="#FFFFFF" text-anchor="middle">イラスト</text>
  <rect x="114" y="108" width="8" height="2" fill="#607D8B" rx="1"/>
  <text x="118" y="109.5" font-family="Arial, sans-serif" font-size="1.5" fill="#FFFFFF" text-anchor="middle">写真編集</text>
  <rect x="124" y="108" width="7" height="2" fill="#795548" rx="1"/>
  <text x="127.5" y="109.5" font-family="Arial, sans-serif" font-size="1.5" fill="#FFFFFF" text-anchor="middle">UI/UX</text>
  <rect x="133" y="108" width="10" height="2" fill="#E91E63" rx="1"/>
  <text x="138" y="109.5" font-family="Arial, sans-serif" font-size="1.5" fill="#FFFFFF" text-anchor="middle">モーション</text>
  <rect x="145" y="108" width="8" height="2" fill="#00BCD4" rx="1"/>
  <text x="149" y="109.5" font-family="Arial, sans-serif" font-size="1.5" fill="#FFFFFF" text-anchor="middle">3Dデザイン</text>
  <rect x="155" y="108" width="8" height="2" fill="#8BC34A" rx="1"/>
  <text x="159" y="109.5" font-family="Arial, sans-serif" font-size="1.5" fill="#FFFFFF" text-anchor="middle">アニメ</text>
  <rect x="165" y="108" width="10" height="2" fill="#FF5722" rx="1"/>
  <text x="170" y="109.5" font-family="Arial, sans-serif" font-size="1.5" fill="#FFFFFF" text-anchor="middle">映像制作</text>
  <rect x="177" y="108" width="8" height="2" fill="#673AB7" rx="1"/>
  <text x="181" y="109.5" font-family="Arial, sans-serif" font-size="1.5" fill="#FFFFFF" text-anchor="middle">VR/AR</text>
  <rect x="187" y="108" width="8" height="2" fill="#009688" rx="1"/>
  <text x="191" y="109.5" font-family="Arial, sans-serif" font-size="1.5" fill="#FFFFFF" text-anchor="middle">ゲーム</text>
  <rect x="197" y="108" width="8" height="2" fill="#FF6B6B" rx="1"/>
  <text x="201" y="109.5" font-family="Arial, sans-serif" font-size="1.5" fill="#FFFFFF" text-anchor="middle">音楽</text>
  <rect x="207" y="108" width="10" height="2" fill="#4ECDC4" rx="1"/>
  <text x="212" y="109.5" font-family="Arial, sans-serif" font-size="1.5" fill="#FFFFFF" text-anchor="middle">ライティング</text>
  <rect x="219" y="108" width="8" height="2" fill="#45B7D1" rx="1"/>
  <text x="223" y="109.5" font-family="Arial, sans-serif" font-size="1.5" fill="#FFFFFF" text-anchor="middle">企画</text>
  <rect x="229" y="108" width="10" height="2" fill="#F39C12" rx="1"/>
  <text x="234" y="109.5" font-family="Arial, sans-serif" font-size="1.5" fill="#FFFFFF" text-anchor="middle">コンサル</text>
  
  <!-- Stats at bottom -->
  <rect x="50" y="118" width="190" height="6" fill="#F1F3F4"/>
  <text x="75" y="121" font-family="Arial, sans-serif" font-size="3" font-weight="bold" fill="#2D1B69" text-anchor="middle">150+</text>
  <text x="75" y="124" font-family="Arial, sans-serif" font-size="2" fill="#666" text-anchor="middle">プロジェクト</text>
  
  <text x="120" y="121" font-family="Arial, sans-serif" font-size="3" font-weight="bold" fill="#F72585" text-anchor="middle">50+</text>
  <text x="120" y="124" font-family="Arial, sans-serif" font-size="2" fill="#666" text-anchor="middle">クライアント</text>
  
  <text x="165" y="121" font-family="Arial, sans-serif" font-size="3" font-weight="bold" fill="#4CC9F0" text-anchor="middle">5年</text>
  <text x="165" y="124" font-family="Arial, sans-serif" font-size="2" fill="#666" text-anchor="middle">の経験</text>
  
  <text x="210" y="121" font-family="Arial, sans-serif" font-size="3" font-weight="bold" fill="#66BB6A" text-anchor="middle">95%</text>
  <text x="210" y="124" font-family="Arial, sans-serif" font-size="2" fill="#666" text-anchor="middle">満足度</text>
  
  <!-- Floating elements -->
  <circle cx="15" cy="55" r="4" fill="#4CC9F0" opacity="0.7"/>
  <rect x="12" y="52" width="6" height="6" fill="#F72585" opacity="0.5" transform="rotate(45 15 55)"/>
  
  <polygon points="285,35 290,30 295,35 290,40" fill="#FFFFFF" opacity="0.8"/>
  <circle cx="290" cy="35" r="1.5" fill="#2D1B69" opacity="0.6"/>
  
  <rect x="5" y="105" width="8" height="1.5" fill="#FFB74D"/>
  <circle cx="9" cy="100" r="1.5" fill="#FF7043"/>
  
  <rect x="270" y="95" width="8" height="1" fill="#9C27B0"/>
  <rect x="268" y="93" width="12" height="1" fill="#E91E63"/>
  <rect x="265" y="91" width="18" height="1" fill="#2196F3"/>
  
  <!-- Brand name -->
  <text x="150" y="165" font-family="serif" font-size="12" font-weight="bold" fill="#FFFFFF" text-anchor="middle">
    Maya Design Studio
  </text>
</svg>