<svg width="400" height="250" xmlns="http://www.w3.org/2000/svg">
  <defs>
    <linearGradient id="startup-bg" x1="0%" y1="0%" x2="100%" y2="100%">
      <stop offset="0%" style="stop-color:#E8F5E8;stop-opacity:1" />
      <stop offset="100%" style="stop-color:#C8E6C9;stop-opacity:1" />
    </linearGradient>
    <linearGradient id="logo-gradient" x1="0%" y1="0%" x2="100%" y2="100%">
      <stop offset="0%" style="stop-color:#4CAF50;stop-opacity:1" />
      <stop offset="100%" style="stop-color:#2E7D32;stop-opacity:1" />
    </linearGradient>
  </defs>
  
  <!-- Background -->
  <rect width="100%" height="100%" fill="url(#startup-bg)" rx="10"/>
  
  <!-- Main logo design -->
  <circle cx="200" cy="125" r="60" fill="url(#logo-gradient)"/>
  
  <!-- Tech symbol inside logo -->
  <rect x="180" y="105" width="40" height="40" rx="8" fill="#FFFFFF"/>
  <circle cx="190" cy="115" r="4" fill="#4CAF50"/>
  <circle cx="210" cy="115" r="4" fill="#4CAF50"/>
  <rect x="185" y="125" width="30" height="3" fill="#4CAF50"/>
  <rect x="185" y="130" width="20" height="3" fill="#4CAF50"/>
  <rect x="185" y="135" width="25" height="3" fill="#4CAF50"/>
  
  <!-- Company name -->
  <text x="200" y="200" font-family="Arial, sans-serif" font-size="20" font-weight="bold" fill="#2E7D32" text-anchor="middle">
    TechFlow
  </text>
  <text x="200" y="220" font-family="Arial, sans-serif" font-size="12" fill="#4CAF50" text-anchor="middle">
    Streamlining Innovation
  </text>
  
  <!-- Logo variations -->
  <rect x="50" y="50" width="80" height="30" fill="#FFFFFF" stroke="#4CAF50" stroke-width="2" rx="5"/>
  <circle cx="70" cy="65" r="8" fill="#4CAF50"/>
  <text x="85" y="70" font-family="Arial, sans-serif" font-size="10" font-weight="bold" fill="#4CAF50">TechFlow</text>
  
  <rect x="270" y="180" width="100" height="40" fill="#2E7D32" rx="5"/>
  <circle cx="290" cy="200" r="10" fill="#FFFFFF"/>
  <rect x="285" y="195" width="10" height="10" rx="2" fill="#4CAF50"/>
  <text x="310" y="205" font-family="Arial, sans-serif" font-size="12" font-weight="bold" fill="#FFFFFF">TechFlow</text>
  
  <!-- Business card mockup -->
  <rect x="50" y="180" width="80" height="50" fill="#FFFFFF" stroke="#E0E0E0" rx="3"/>
  <circle cx="70" cy="195" r="6" fill="#4CAF50"/>
  <text x="80" y="198" font-family="Arial, sans-serif" font-size="6" fill="#2E7D32">TechFlow Inc.</text>
  <text x="60" y="210" font-family="Arial, sans-serif" font-size="5" fill="#666">Innovation Solutions</text>
  <text x="60" y="220" font-family="Arial, sans-serif" font-size="4" fill="#999">www.techflow.com</text>
  
  <!-- Color palette -->
  <rect x="320" y="50" width="15" height="15" fill="#4CAF50"/>
  <rect x="340" y="50" width="15" height="15" fill="#2E7D32"/>
  <rect x="360" y="50" width="15" height="15" fill="#81C784"/>
  <rect x="320" y="70" width="15" height="15" fill="#E8F5E8"/>
  <rect x="340" y="70" width="15" height="15" fill="#FFFFFF"/>
  <rect x="360" y="70" width="15" height="15" fill="#263238"/>
  
  <text x="200" y="240" font-family="Arial, sans-serif" font-size="14" font-weight="bold" fill="#2E7D32" text-anchor="middle">
    スタートアップロゴ
  </text>
</svg>