<svg width="400" height="250" xmlns="http://www.w3.org/2000/svg">
  <defs>
    <linearGradient id="project-bg" x1="0%" y1="0%" x2="100%" y2="100%">
      <stop offset="0%" style="stop-color:#e3f2fd;stop-opacity:1" />
      <stop offset="100%" style="stop-color:#bbdefb;stop-opacity:1" />
    </linearGradient>
  </defs>
  
  <!-- Background -->
  <rect width="100%" height="100%" fill="url(#project-bg)"/>
  
  <!-- Dashboard mockup -->
  <rect x="40" y="40" width="320" height="170" rx="8" fill="#ffffff" stroke="#2c5aa0" stroke-width="2"/>
  
  <!-- Header bar -->
  <rect x="40" y="40" width="320" height="30" rx="8" fill="#2c5aa0"/>
  <circle cx="60" cy="55" r="4" fill="#ffffff"/>
  <circle cx="75" cy="55" r="4" fill="#ffffff"/>
  <circle cx="90" cy="55" r="4" fill="#ffffff"/>
  
  <!-- Charts and data -->
  <rect x="60" y="90" width="80" height="60" fill="#e8f5e8" rx="4"/>
  <rect x="60" y="130" width="60" height="8" fill="#4caf50"/>
  <rect x="60" y="140" width="45" height="8" fill="#2196f3"/>
  
  <rect x="160" y="90" width="80" height="60" fill="#fff3e0" rx="4"/>
  <circle cx="200" cy="120" r="20" fill="none" stroke="#ff9800" stroke-width="4"/>
  <path d="M200,100 A20,20 0 0,1 220,120" fill="none" stroke="#4caf50" stroke-width="4"/>
  
  <rect x="260" y="90" width="80" height="60" fill="#f3e5f5" rx="4"/>
  <rect x="270" y="140" width="8" height="10" fill="#9c27b0"/>
  <rect x="285" y="130" width="8" height="20" fill="#9c27b0"/>
  <rect x="300" y="120" width="8" height="30" fill="#9c27b0"/>
  <rect x="315" y="110" width="8" height="40" fill="#9c27b0"/>
  
  <!-- Text -->
  <text x="200" y="180" font-family="Arial, sans-serif" font-size="14" font-weight="bold" fill="#2c5aa0" text-anchor="middle">
    生産管理システム
  </text>
  <text x="200" y="200" font-family="Arial, sans-serif" font-size="12" fill="#666666" text-anchor="middle">
    Manufacturing Dashboard
  </text>
</svg>